<svg width="1045" height="194" viewBox="0 0 1045 194" fill="none" xmlns="http://www.w3.org/2000/svg">
<path d="M5.96046e-08 148V41.8H30.4L31.4 61L27.2 61.2C28.8 57.7333 30.8 54.6667 33.2 52C35.7333 49.3333 38.5333 47.1333 41.6 45.4C44.8 43.5333 48.0667 42.1333 51.4 41.2C54.8667 40.2667 58.3333 39.8 61.8 39.8C67 39.8 71.7333 40.6 76 42.2C80.2667 43.8 84 46.4 87.2 50C90.4 53.4667 92.9333 58.2 94.8 64.2L89.8 63.8L91.4 60.6C93.1333 57.4 95.3333 54.5333 98 52C100.8 49.3333 103.867 47.1333 107.2 45.4C110.533 43.5333 114 42.1333 117.6 41.2C121.2 40.2667 124.667 39.8 128 39.8C136.4 39.8 143.4 41.4667 149 44.8C154.6 48 158.8 52.8667 161.6 59.4C164.533 65.9333 166 73.8667 166 83.2V148H133.8V85.8C133.8 81.5333 133.2 78 132 75.2C130.8 72.4 129 70.3333 126.6 69C124.333 67.5333 121.467 66.8 118 66.8C115.2 66.8 112.6 67.2667 110.2 68.2C107.933 69.1333 105.933 70.4 104.2 72C102.6 73.6 101.333 75.4667 100.4 77.6C99.4667 79.7333 99 82.1333 99 84.8V148H66.8V85.6C66.8 81.6 66.2 78.2 65 75.4C63.8 72.6 62 70.4667 59.6 69C57.2 67.5333 54.4 66.8 51.2 66.8C48.4 66.8 45.8 67.2667 43.4 68.2C41.1333 69.1333 39.1333 70.4 37.4 72C35.8 73.6 34.5333 75.4667 33.6 77.6C32.6667 79.7333 32.2 82.0667 32.2 84.6V148H5.96046e-08ZM231.783 149.8C222.849 149.8 214.849 147.467 207.783 142.8C200.849 138 195.316 131.467 191.183 123.2C187.049 114.8 184.983 105.333 184.983 94.8C184.983 84 187.049 74.4667 191.183 66.2C195.316 57.9333 200.983 51.4667 208.183 46.8C215.383 42 223.583 39.6 232.783 39.6C237.849 39.6 242.449 40.3333 246.583 41.8C250.849 43.2667 254.583 45.3333 257.783 48C260.983 50.5333 263.716 53.5333 265.983 57C268.249 60.3333 269.916 63.9333 270.983 67.8L264.383 67V41.8H296.183V148H263.783V122.4L270.983 122.2C269.916 125.933 268.183 129.467 265.783 132.8C263.383 136.133 260.449 139.067 256.983 141.6C253.516 144.133 249.649 146.133 245.383 147.6C241.116 149.067 236.583 149.8 231.783 149.8ZM240.583 122.8C245.516 122.8 249.783 121.667 253.383 119.4C256.983 117.133 259.783 113.933 261.783 109.8C263.783 105.533 264.783 100.533 264.783 94.8C264.783 89.0667 263.783 84.1333 261.783 80C259.783 75.7333 256.983 72.4667 253.383 70.2C249.783 67.8 245.516 66.6 240.583 66.6C235.783 66.6 231.583 67.8 227.983 70.2C224.516 72.4667 221.783 75.7333 219.783 80C217.783 84.1333 216.783 89.0667 216.783 94.8C216.783 100.533 217.783 105.533 219.783 109.8C221.783 113.933 224.516 117.133 227.983 119.4C231.583 121.667 235.783 122.8 240.583 122.8ZM324.419 148V41.8H354.819L356.219 76.4L350.219 69.8C351.819 64.0667 354.419 58.9333 358.019 54.4C361.752 49.8667 366.085 46.2667 371.019 43.6C375.952 40.9333 381.219 39.6 386.819 39.6C389.219 39.6 391.419 39.8 393.419 40.2C395.552 40.6 397.485 41.0667 399.219 41.6L390.419 77C388.952 76.0667 386.952 75.3333 384.419 74.8C382.019 74.1333 379.485 73.8 376.819 73.8C373.885 73.8 371.152 74.3333 368.619 75.4C366.085 76.3333 363.952 77.7333 362.219 79.6C360.485 81.4667 359.085 83.6667 358.019 86.2C357.085 88.7333 356.619 91.6 356.619 94.8V148H324.419ZM457.542 150C447.276 150 438.076 147.6 429.942 142.8C421.809 138 415.342 131.467 410.542 123.2C405.876 114.8 403.542 105.333 403.542 94.8C403.542 84.2667 405.876 74.8667 410.542 66.6C415.342 58.2 421.809 51.6 429.942 46.8C438.076 42 447.276 39.6 457.542 39.6C467.009 39.6 475.676 41.2667 483.542 44.6C491.542 47.9333 497.876 52.6 502.542 58.6L485.142 79.4C483.276 77.2667 481.076 75.2667 478.542 73.4C476.009 71.5333 473.209 70.0667 470.142 69C467.076 67.9333 463.876 67.4 460.542 67.4C455.476 67.4 451.009 68.6 447.142 71C443.276 73.2667 440.276 76.4667 438.142 80.6C436.009 84.7333 434.942 89.4667 434.942 94.8C434.942 99.8667 436.009 104.467 438.142 108.6C440.409 112.733 443.476 116 447.342 118.4C451.209 120.8 455.609 122 460.542 122C464.009 122 467.209 121.6 470.142 120.8C473.076 119.867 475.742 118.533 478.142 116.8C480.676 115.067 483.009 112.933 485.142 110.4L502.342 131.4C497.809 137.133 491.476 141.667 483.342 145C475.342 148.333 466.742 150 457.542 150ZM569.927 150C558.86 150 548.993 147.6 540.327 142.8C531.793 138 524.993 131.467 519.927 123.2C514.993 114.933 512.527 105.467 512.527 94.8C512.527 84.1333 514.993 74.6667 519.927 66.4C524.993 58.1333 531.793 51.6 540.327 46.8C548.993 42 558.86 39.6 569.927 39.6C580.993 39.6 590.793 42 599.327 46.8C607.993 51.6 614.793 58.1333 619.727 66.4C624.66 74.6667 627.127 84.1333 627.127 94.8C627.127 105.467 624.66 114.933 619.727 123.2C614.793 131.467 607.993 138 599.327 142.8C590.793 147.6 580.993 150 569.927 150ZM569.927 122.4C574.727 122.4 578.993 121.2 582.727 118.8C586.46 116.4 589.393 113.133 591.527 109C593.66 104.867 594.66 100.133 594.527 94.8C594.66 89.4667 593.66 84.7333 591.527 80.6C589.393 76.3333 586.46 73 582.727 70.6C578.993 68.2 574.727 67 569.927 67C565.127 67 560.793 68.2 556.927 70.6C553.193 73 550.26 76.3333 548.127 80.6C545.993 84.7333 544.993 89.4667 545.127 94.8C544.993 100.133 545.993 104.867 548.127 109C550.26 113.133 553.193 116.4 556.927 118.8C560.793 121.2 565.127 122.4 569.927 122.4ZM683.852 150C673.452 150 664.252 148.333 656.252 145C648.385 141.667 642.118 137.2 637.452 131.6L656.852 114.8C660.985 118.933 665.652 122 670.852 124C676.052 125.867 680.985 126.8 685.652 126.8C687.518 126.8 689.185 126.6 690.652 126.2C692.118 125.8 693.318 125.267 694.252 124.6C695.318 123.8 696.118 122.933 696.652 122C697.185 120.933 697.452 119.733 697.452 118.4C697.452 115.733 696.252 113.667 693.852 112.2C692.652 111.533 690.652 110.733 687.852 109.8C685.052 108.867 681.452 107.8 677.052 106.6C670.785 105 665.318 103.133 660.652 101C656.118 98.7333 652.385 96.1333 649.452 93.2C646.785 90.4 644.718 87.3333 643.252 84C641.785 80.5333 641.052 76.6667 641.052 72.4C641.052 67.4667 642.185 63 644.452 59C646.852 55 649.985 51.5333 653.852 48.6C657.852 45.6667 662.385 43.4667 667.452 42C672.652 40.4 677.985 39.6 683.452 39.6C689.318 39.6 694.918 40.2667 700.252 41.6C705.585 42.9333 710.518 44.8 715.052 47.2C719.718 49.6 723.852 52.4667 727.452 55.8L710.652 74.6C708.252 72.3333 705.518 70.3333 702.452 68.6C699.518 66.7333 696.452 65.2667 693.252 64.2C690.052 63.1333 687.118 62.6 684.452 62.6C682.452 62.6 680.652 62.8 679.052 63.2C677.585 63.4667 676.318 64 675.252 64.8C674.185 65.4667 673.385 66.3333 672.852 67.4C672.318 68.3333 672.052 69.4667 672.052 70.8C672.052 72.1333 672.385 73.4 673.052 74.6C673.852 75.8 674.918 76.8 676.252 77.6C677.585 78.4 679.718 79.3333 682.652 80.4C685.585 81.3333 689.585 82.5333 694.652 84C700.918 85.7333 706.318 87.6667 710.852 89.8C715.385 91.9333 718.985 94.4667 721.652 97.4C723.785 99.6667 725.385 102.333 726.452 105.4C727.518 108.333 728.052 111.533 728.052 115C728.052 121.8 726.118 127.867 722.252 133.2C718.518 138.4 713.318 142.533 706.652 145.6C699.985 148.533 692.385 150 683.852 150ZM787.275 150.2C778.075 150.2 769.875 147.867 762.675 143.2C755.608 138.4 750.008 131.867 745.875 123.6C741.742 115.2 739.675 105.667 739.675 95C739.675 84.3333 741.742 74.8667 745.875 66.6C750.008 58.2 755.675 51.6 762.875 46.8C770.075 42 778.342 39.6 787.675 39.6C792.475 39.6 797.075 40.3333 801.475 41.8C805.875 43.2667 809.875 45.2667 813.475 47.8C817.075 50.3333 820.008 53.2667 822.275 56.6C824.542 59.8 825.875 63.1333 826.275 66.6L818.675 68.4V-1.90735e-06H850.875V148H821.075L819.275 123.8L825.675 124.8C825.275 128.133 823.942 131.333 821.675 134.4C819.542 137.467 816.742 140.2 813.275 142.6C809.808 144.867 805.808 146.667 801.275 148C796.875 149.467 792.208 150.2 787.275 150.2ZM795.475 123.6C800.408 123.6 804.675 122.4 808.275 120C811.875 117.6 814.608 114.267 816.475 110C818.475 105.733 819.475 100.733 819.475 95C819.475 89.1333 818.475 84.0667 816.475 79.8C814.608 75.5333 811.875 72.2 808.275 69.8C804.675 67.4 800.408 66.2 795.475 66.2C790.542 66.2 786.275 67.4 782.675 69.8C779.208 72.2 776.475 75.5333 774.475 79.8C772.475 84.0667 771.475 89.1333 771.475 95C771.475 100.733 772.475 105.733 774.475 110C776.475 114.267 779.208 117.6 782.675 120C786.275 122.4 790.542 123.6 795.475 123.6ZM878.134 148V-1.90735e-06H910.134V148H878.134ZM949.147 194L973.347 137L973.747 153.4L922.547 41.8H958.747L981.147 95.2C982.347 97.8667 983.48 100.733 984.547 103.8C985.614 106.867 986.414 109.8 986.947 112.6L982.547 115.2C983.347 113.2 984.214 110.733 985.147 107.8C986.214 104.733 987.347 101.467 988.547 98L1008.15 41.8H1044.55L999.347 148L980.947 194H949.147Z" fill="black"/>
</svg>
